<?xml version="1.0" encoding="utf-8"?>
<!-- Generator: Adobe Illustrator 15.0.0, SVG Export Plug-In . SVG Version: 6.00 Build 0)  -->
<!DOCTYPE svg PUBLIC "-//W3C//DTD SVG 1.1//EN" "http://www.w3.org/Graphics/SVG/1.1/DTD/svg11.dtd">
<svg version="1.1" xmlns="http://www.w3.org/2000/svg" xmlns:xlink="http://www.w3.org/1999/xlink" x="0px" y="0px" width="500px"
	 height="500px" viewBox="0 0 500 500" enable-background="new 0 0 500 500" xml:space="preserve">
<g id="base">
	<path id="Face-Shape" fill="#C2B59B" stroke="#603913" stroke-width="10" stroke-miterlimit="10" d="M250,430.529
		c-58.345,0-100.101-13.012-129.877-32.996c-61.173-41.055-71.782-111.529-71.782-159.041c0-17.66,1.652-37.284,4.232-56.729
		c7.732-58.33,23.79-115.034,28.529-112.191c6.319,3.791,36.513,98.458,70.639,92.138c17.063-3.16,57.661-4.739,98.259-4.739
		c40.599-0.001,81.196,1.579,98.259,4.739c34.126,6.32,64.32-88.347,70.64-92.138c4.738-2.843,20.797,53.861,28.529,112.191
		c2.579,19.444,4.231,39.068,4.231,56.729c0,47.511-10.608,117.986-71.781,159.041C350.101,417.518,308.345,430.529,250,430.529z"/>
	<g id="Mouth">
		<path id="Bottom" fill="#F496BF" stroke="#603913" stroke-width="10" stroke-linecap="round" stroke-miterlimit="10" d="M250,387
			c-21-2.667-32.456-35.662-32.456-35.662C234.903,345.186,250,332.334,250,332.334s15.097,12.852,32.456,19.004
			C282.456,351.338,271,384.333,250,387z"/>
		<path id="Top" fill="#C2B59B" stroke="#603913" stroke-width="10" stroke-linecap="round" stroke-miterlimit="10" d="
			M169.666,323.667c15.334,64,80.334,8.667,80.334,8.667s65,55.333,80.334-8.667"/>
	</g>
	<g id="Eye-L">
		<g id="Eye">
			<path fill="#FFFFFF" d="M294.146,276l-0.262-4.723c-0.063-1.14-1.342-28.112,16.559-47.032
				c11.038-11.667,26.762-17.583,46.734-17.583c0.361,0,0.72,0.002,1.085,0.006l3.872,0.041l0.929,3.759
				c5.96,24.108,4.899,40.237-3.337,50.757C348.158,276,325.32,276,298.876,276H294.146z"/>
			<path fill="#603913" d="M357.177,211.662c0.344,0,0.685,0.001,1.032,0.005C372.876,271,340.876,271,298.876,271
				C298.876,271,295.585,211.665,357.177,211.662 M357.187,201.662L357.187,201.662h-0.011c-21.401,0.001-38.347,6.444-50.367,19.15
				c-19.361,20.466-17.985,49.515-17.917,50.742l0.523,9.446h9.461c12.928,0,25.139,0,35.757-1.738
				c13.369-2.189,22.865-7.081,29.029-14.954c9.261-11.829,10.613-29.319,4.255-55.041l-1.858-7.517l-7.743-0.083
				C357.935,201.664,357.563,201.662,357.187,201.662L357.187,201.662z"/>
		</g>
		<g id="Clipping-Group">
			<defs>
				<path id="Eye-Clppng" d="M298.876,271c0,0-3.334-60,59.333-59.333C372.876,271,340.876,271,298.876,271z"/>
			</defs>
			<clipPath id="Eye-Clppng_8_">
				<use xlink:href="#Eye_x002D_Clppng"  overflow="visible"/>
			</clipPath>
			
				<circle id="Pupil" clip-path="url(#Eye-Clppng_8_)" fill="#8DC63F" stroke="#00A651" stroke-width="10" stroke-linecap="round" stroke-miterlimit="10" cx="334.745" cy="243.078" r="21.755"/>
		</g>
	</g>
	<g id="Eye-R">
		<g id="Eye_1_">
			<path fill="#FFFFFF" d="M201.125,276c-26.444,0-49.282,0-60.849-14.775c-8.237-10.52-9.297-26.649-3.338-50.757l0.929-3.759
				l3.872-0.041c0.366-0.004,0.724-0.006,1.085-0.006c19.972,0,35.696,5.916,46.734,17.583c17.9,18.92,16.622,45.893,16.559,47.032
				L205.855,276H201.125z"/>
			<path fill="#603913" d="M142.824,211.662c61.592,0,58.301,59.338,58.301,59.338c-42,0-74,0-59.333-59.333
				C142.14,211.663,142.48,211.662,142.824,211.662 M142.824,201.662c-0.379,0-0.755,0.002-1.139,0.006l-7.743,0.083l-1.858,7.517
				c-6.358,25.722-5.006,43.211,4.255,55.041c6.165,7.873,15.66,12.765,29.029,14.954C175.986,281,188.197,281,201.125,281h9.461
				l0.524-9.446c0.068-1.227,1.443-30.278-17.919-50.745C181.17,208.104,164.225,201.662,142.824,201.662L142.824,201.662z"/>
		</g>
		<g id="Clipping-Group_1_">
			<defs>
				<path id="Eye-Clppng_1_" d="M201.125,271c0,0,3.334-60-59.333-59.333C127.125,271,159.125,271,201.125,271z"/>
			</defs>
			<clipPath id="Eye-Clppng_9_">
				<use xlink:href="#Eye_x002D_Clppng_1_"  overflow="visible"/>
			</clipPath>
			
				<circle id="Pupil_1_" clip-path="url(#Eye-Clppng_9_)" fill="#8DC63F" stroke="#00A651" stroke-width="10" stroke-linecap="round" stroke-miterlimit="10" cx="165.256" cy="243.078" r="21.755"/>
		</g>
	</g>
	<g id="Whiskers-L">
		<path id="Bottom_1_" fill="none" stroke="#603913" stroke-width="10" stroke-linecap="round" stroke-miterlimit="10" d="
			M368.696,325.969c0,0,15.734-4.52,60.055,3.656c36.249,6.687,53.917,18.522,53.917,18.522"/>
		<path id="Middle" fill="none" stroke="#603913" stroke-width="10" stroke-linecap="round" stroke-miterlimit="10" d="
			M368.284,310.898c0,0,14.548-8.133,59.616-8.123c45.067,0.009,62.768,8.444,62.768,8.444"/>
		<path id="Top_1_" fill="none" stroke="#603913" stroke-width="10" stroke-linecap="round" stroke-miterlimit="10" d="M365,293
			c0,0,13.333-10,58-16s63.334,0,63.334,0"/>
	</g>
	<g id="Whiskers-R">
		<path id="Bottom_2_" fill="none" stroke="#603913" stroke-width="10" stroke-linecap="round" stroke-miterlimit="10" d="
			M130.972,325.969c0,0-15.734-4.52-60.055,3.656C34.668,336.312,17,348.147,17,348.147"/>
		<path id="Middle_1_" fill="none" stroke="#603913" stroke-width="10" stroke-linecap="round" stroke-miterlimit="10" d="
			M131.384,310.898c0,0-14.548-8.133-59.616-8.123C26.7,302.784,9,311.22,9,311.22"/>
		<path id="Top_2_" fill="none" stroke="#603913" stroke-width="10" stroke-linecap="round" stroke-miterlimit="10" d="M134.668,293
			c0,0-13.333-10-58-16s-63.334,0-63.334,0"/>
	</g>
	<g id="Nose">
		<path fill="#603913" d="M237.666,287.333c0.198,4.23,0.012,8.392-0.173,12.498c-0.183,4.081-0.501,8.186-0.319,11.839
			c0.081,1.796,0.384,3.479,0.861,4.428c0.242,0.477,0.498,0.731,0.755,0.948c0.266,0.211,0.62,0.413,1.154,0.61
			c1.057,0.397,2.701,0.714,4.453,0.831c1.763,0.151,3.669,0.201,5.603,0.182c1.958,0.011,3.826-0.026,5.603-0.189
			c1.75-0.119,3.396-0.429,4.448-0.833c0.533-0.197,0.886-0.397,1.151-0.608c0.258-0.215,0.505-0.472,0.75-0.945
			c0.478-0.946,0.775-2.627,0.86-4.423c0.181-3.651-0.137-7.755-0.317-11.836c-0.183-4.107-0.366-8.27-0.161-12.501
			c1.929,3.773,3.521,7.605,4.977,11.521c1.415,3.941,2.71,7.898,3.355,12.431c0.271,2.275,0.462,4.774-0.392,7.722
			c-0.431,1.455-1.205,3.022-2.354,4.3c-1.133,1.29-2.51,2.25-3.828,2.921c-1.324,0.684-2.626,1.088-3.854,1.4
			c-1.235,0.311-2.421,0.516-3.575,0.671c-2.296,0.271-4.526,0.346-6.662,0.366c-2.159-0.029-4.352-0.091-6.661-0.374
			c-1.154-0.155-2.34-0.36-3.574-0.67c-1.23-0.309-2.528-0.722-3.851-1.403c-1.318-0.67-2.694-1.629-3.826-2.918
			c-1.149-1.275-1.916-2.846-2.35-4.298c-0.854-2.943-0.656-5.441-0.39-7.716c0.647-4.531,1.941-8.487,3.354-12.43
			C234.155,294.94,235.744,291.108,237.666,287.333z"/>
	</g>
</g>
<g id="Left-Eye-Closed">
	<path id="Face-Shape_3_" fill="#C2B59B" stroke="#603913" stroke-width="10" stroke-miterlimit="10" d="M250,430.529
		c-58.345,0-100.101-13.012-129.877-32.996c-61.173-41.055-71.782-111.529-71.782-159.041c0-17.66,1.652-37.284,4.232-56.729
		c7.732-58.33,23.79-115.034,28.529-112.191c6.319,3.791,36.513,98.458,70.639,92.138c17.063-3.16,57.661-4.739,98.259-4.739
		c40.599-0.001,81.196,1.579,98.259,4.739c34.126,6.32,64.32-88.347,70.64-92.138c4.738-2.843,20.797,53.861,28.529,112.191
		c2.579,19.444,4.231,39.068,4.231,56.729c0,47.511-10.608,117.986-71.781,159.041C350.101,417.518,308.345,430.529,250,430.529z"/>
	<g id="Mouth_copy_3">
		<path id="Bottom_11_" fill="#F496BF" stroke="#603913" stroke-width="10" stroke-linecap="round" stroke-miterlimit="10" d="
			M250,387c-21-2.667-32.456-35.662-32.456-35.662C234.903,345.186,250,332.334,250,332.334s15.097,12.852,32.456,19.004
			C282.456,351.338,271,384.333,250,387z"/>
		<path id="Top_11_" fill="#C2B59B" stroke="#603913" stroke-width="10" stroke-linecap="round" stroke-miterlimit="10" d="
			M169.666,323.667c15.334,64,80.334,8.667,80.334,8.667s65,55.333,80.334-8.667"/>
	</g>
	<g id="Eye-L_copy_3">
		<g id="Eye_7_">
			<path fill="#FFFFFF" d="M293.884,271.277c-0.063-1.14-1.342-28.112,16.559-47.032c11.038-11.667,26.762-17.583,46.734-17.583
				c0.361,0,0.72,0.002,1.085,0.006l-0.054,10c-43.757,0-53.697,29.616-54.334,54.461L293.884,271.277z"/>
			<path fill="#603913" d="M357.177,211.662c0.344,0,0.685,0.001,1.032,0.005c-0.003,0-0.008,0-0.012,0
				c-49.076,0-58.697,34.959-59.321,59.333C298.876,271,295.585,211.662,357.177,211.662 M357.177,201.662
				c-21.4,0-38.347,6.442-50.366,19.147c-19.363,20.467-17.987,49.519-17.919,50.745l19.981-0.298
				c0.842-32.905,17.438-49.589,49.324-49.589l0.118-20C357.932,201.664,357.556,201.662,357.177,201.662L357.177,201.662z"/>
		</g>
		<g id="Clipping-Group_7_">
			<defs>
				<path id="Eye-Clppng_7_" d="M298.876,271c0,0-3.334-60,59.333-59.333C322.625,212.25,300.875,229,298.876,271z"/>
			</defs>
			<clipPath id="Eye-Clppng_10_">
				<use xlink:href="#Eye_x002D_Clppng_7_"  overflow="visible"/>
			</clipPath>
			
				<circle id="Pupil_7_" clip-path="url(#Eye-Clppng_10_)" fill="#8DC63F" stroke="#00A651" stroke-width="10" stroke-linecap="round" stroke-miterlimit="10" cx="334.745" cy="243.078" r="21.755"/>
		</g>
	</g>
	<g id="Eye-R_copy_3">
		<g id="Eye_6_">
			<path fill="#FFFFFF" d="M201.125,276c-26.444,0-49.282,0-60.849-14.775c-8.237-10.52-9.297-26.649-3.338-50.757l0.929-3.759
				l3.872-0.041c0.366-0.004,0.724-0.006,1.085-0.006c19.972,0,35.696,5.916,46.734,17.583c17.9,18.92,16.622,45.893,16.559,47.032
				L205.855,276H201.125z"/>
			<path fill="#603913" d="M142.824,211.662c61.592,0,58.301,59.338,58.301,59.338c-42,0-74,0-59.333-59.333
				C142.14,211.663,142.48,211.662,142.824,211.662 M142.824,201.662c-0.379,0-0.755,0.002-1.139,0.006l-7.743,0.083l-1.858,7.517
				c-6.358,25.722-5.006,43.211,4.255,55.041c6.165,7.873,15.66,12.765,29.029,14.954C175.986,281,188.197,281,201.125,281h9.461
				l0.524-9.446c0.068-1.227,1.443-30.278-17.919-50.745C181.17,208.104,164.225,201.662,142.824,201.662L142.824,201.662z"/>
		</g>
		<g id="Clipping-Group_6_">
			<defs>
				<path id="Eye-Clppng_6_" d="M201.125,271c0,0,3.334-60-59.333-59.333C127.125,271,159.125,271,201.125,271z"/>
			</defs>
			<clipPath id="Eye-Clppng_11_">
				<use xlink:href="#Eye_x002D_Clppng_6_"  overflow="visible"/>
			</clipPath>
			
				<circle id="Pupil_6_" clip-path="url(#Eye-Clppng_11_)" fill="#8DC63F" stroke="#00A651" stroke-width="10" stroke-linecap="round" stroke-miterlimit="10" cx="165.256" cy="243.078" r="21.755"/>
		</g>
	</g>
	<g id="Whiskers-L_copy_3">
		<path id="Bottom_10_" fill="none" stroke="#603913" stroke-width="10" stroke-linecap="round" stroke-miterlimit="10" d="
			M368.696,325.969c0,0,15.734-4.52,60.055,3.656c36.249,6.687,53.917,18.522,53.917,18.522"/>
		<path id="Middle_7_" fill="none" stroke="#603913" stroke-width="10" stroke-linecap="round" stroke-miterlimit="10" d="
			M368.284,310.898c0,0,14.548-8.133,59.616-8.123c45.067,0.009,62.768,8.444,62.768,8.444"/>
		<path id="Top_10_" fill="none" stroke="#603913" stroke-width="10" stroke-linecap="round" stroke-miterlimit="10" d="M365,293
			c0,0,13.333-10,58-16s63.334,0,63.334,0"/>
	</g>
	<g id="Whiskers-R_copy_3">
		<path id="Bottom_9_" fill="none" stroke="#603913" stroke-width="10" stroke-linecap="round" stroke-miterlimit="10" d="
			M130.972,325.969c0,0-15.734-4.52-60.055,3.656C34.668,336.312,17,348.147,17,348.147"/>
		<path id="Middle_6_" fill="none" stroke="#603913" stroke-width="10" stroke-linecap="round" stroke-miterlimit="10" d="
			M131.384,310.898c0,0-14.548-8.133-59.616-8.123C26.7,302.784,9,311.22,9,311.22"/>
		<path id="Top_9_" fill="none" stroke="#603913" stroke-width="10" stroke-linecap="round" stroke-miterlimit="10" d="M134.668,293
			c0,0-13.333-10-58-16s-63.334,0-63.334,0"/>
	</g>
	<g id="Nose_3_">
		<path fill="#603913" d="M237.666,287.333c0.198,4.23,0.012,8.392-0.173,12.498c-0.183,4.081-0.501,8.186-0.319,11.839
			c0.081,1.796,0.384,3.479,0.861,4.428c0.242,0.477,0.498,0.731,0.755,0.948c0.266,0.211,0.62,0.413,1.154,0.61
			c1.057,0.397,2.701,0.714,4.453,0.831c1.763,0.151,3.669,0.201,5.603,0.182c1.958,0.011,3.826-0.026,5.603-0.189
			c1.75-0.119,3.396-0.429,4.448-0.833c0.533-0.197,0.886-0.397,1.151-0.608c0.258-0.215,0.505-0.472,0.75-0.945
			c0.478-0.946,0.775-2.627,0.86-4.423c0.181-3.651-0.137-7.755-0.317-11.836c-0.183-4.107-0.366-8.27-0.161-12.501
			c1.929,3.773,3.521,7.605,4.977,11.521c1.415,3.941,2.71,7.898,3.355,12.431c0.271,2.275,0.462,4.774-0.392,7.722
			c-0.431,1.455-1.205,3.022-2.354,4.3c-1.133,1.29-2.51,2.25-3.828,2.921c-1.324,0.684-2.626,1.088-3.854,1.4
			c-1.235,0.311-2.421,0.516-3.575,0.671c-2.296,0.271-4.526,0.346-6.662,0.366c-2.159-0.029-4.352-0.091-6.661-0.374
			c-1.154-0.155-2.34-0.36-3.574-0.67c-1.23-0.309-2.528-0.722-3.851-1.403c-1.318-0.67-2.694-1.629-3.826-2.918
			c-1.149-1.275-1.916-2.846-2.35-4.298c-0.854-2.943-0.656-5.441-0.39-7.716c0.647-4.531,1.941-8.487,3.354-12.43
			C234.155,294.94,235.744,291.108,237.666,287.333z"/>
	</g>
</g>
<g id="Right-Eye-Closed">
	<path id="Face-Shape_2_" fill="#C2B59B" stroke="#603913" stroke-width="10" stroke-miterlimit="10" d="M250,430.529
		c-58.345,0-100.101-13.012-129.877-32.996c-61.173-41.055-71.782-111.529-71.782-159.041c0-17.66,1.652-37.284,4.232-56.729
		c7.732-58.33,23.79-115.034,28.529-112.191c6.319,3.791,36.513,98.458,70.639,92.138c17.063-3.16,57.661-4.739,98.259-4.739
		c40.599-0.001,81.196,1.579,98.259,4.739c34.126,6.32,64.32-88.347,70.64-92.138c4.738-2.843,20.797,53.861,28.529,112.191
		c2.579,19.444,4.231,39.068,4.231,56.729c0,47.511-10.608,117.986-71.781,159.041C350.101,417.518,308.345,430.529,250,430.529z"/>
	<g id="Mouth_copy_2">
		<path id="Bottom_8_" fill="#F496BF" stroke="#603913" stroke-width="10" stroke-linecap="round" stroke-miterlimit="10" d="
			M250,387c-21-2.667-32.456-35.662-32.456-35.662C234.903,345.186,250,332.334,250,332.334s15.097,12.852,32.456,19.004
			C282.456,351.338,271,384.333,250,387z"/>
		<path id="Top_8_" fill="#C2B59B" stroke="#603913" stroke-width="10" stroke-linecap="round" stroke-miterlimit="10" d="
			M169.666,323.667c15.334,64,80.334,8.667,80.334,8.667s65,55.333,80.334-8.667"/>
	</g>
	<g id="Eye-L_copy_2">
		<g id="Eye_5_">
			<path fill="#FFFFFF" d="M294.146,276l-0.262-4.723c-0.063-1.14-1.342-28.112,16.559-47.032
				c11.038-11.667,26.762-17.583,46.734-17.583c0.361,0,0.72,0.002,1.085,0.006l3.872,0.041l0.929,3.759
				c5.96,24.108,4.899,40.237-3.337,50.757C348.158,276,325.32,276,298.876,276H294.146z"/>
			<path fill="#603913" d="M357.177,211.662c0.344,0,0.685,0.001,1.032,0.005C372.876,271,340.876,271,298.876,271
				C298.876,271,295.585,211.665,357.177,211.662 M357.187,201.662L357.187,201.662h-0.011c-21.401,0.001-38.347,6.444-50.367,19.15
				c-19.361,20.466-17.985,49.515-17.917,50.742l0.523,9.446h9.461c12.928,0,25.139,0,35.757-1.738
				c13.369-2.189,22.865-7.081,29.029-14.954c9.261-11.829,10.613-29.319,4.255-55.041l-1.858-7.517l-7.743-0.083
				C357.935,201.664,357.563,201.662,357.187,201.662L357.187,201.662z"/>
		</g>
		<g id="Clipping-Group_5_">
			<defs>
				<path id="Eye-Clppng_5_" d="M298.876,271c0,0-3.334-60,59.333-59.333C372.876,271,340.876,271,298.876,271z"/>
			</defs>
			<clipPath id="Eye-Clppng_12_">
				<use xlink:href="#Eye_x002D_Clppng_5_"  overflow="visible"/>
			</clipPath>
			
				<circle id="Pupil_5_" clip-path="url(#Eye-Clppng_12_)" fill="#8DC63F" stroke="#00A651" stroke-width="10" stroke-linecap="round" stroke-miterlimit="10" cx="334.745" cy="243.078" r="21.755"/>
		</g>
	</g>
	<g id="Eye-R_copy_2">
		<g id="Eye_4_">
			<path fill="#FFFFFF" d="M196.125,270.993c0.011-8.597-1.809-37.563-25.677-49.398c-6.832-3.338-15.054-5.031-24.436-5.031
				c-1.298,0-2.638,0.033-3.982,0.097l-0.51-9.987c1.647-0.089,3.29-0.135,4.883-0.135c10.73,0,20.305,2.046,28.458,6.083
				c32.744,16.021,31.334,56.866,31.258,58.598L196.125,270.993z"/>
			<path fill="#603913" d="M146.403,211.54c10.572,0,19.216,2.084,26.252,5.57c-7.016-3.431-15.757-5.544-26.643-5.545
				c-1.375,0-2.777,0.034-4.221,0.103C143.366,211.582,144.906,211.54,146.403,211.54 M172.655,217.109
				C202.843,231.87,201.125,271,201.125,271C201.147,253.544,195.072,228.214,172.655,217.109 M146.407,201.54v10l-0.001-10
				c-1.688,0-3.421,0.048-5.157,0.142l1.02,19.974c1.266-0.061,2.523-0.091,3.738-0.091c8.617,0.001,16.095,1.521,22.235,4.518
				c21.274,10.558,22.894,37.038,22.884,44.905l19.99,0.451c0.082-1.864,1.593-45.854-34.043-63.301
				C168.225,203.759,157.908,201.54,146.407,201.54L146.407,201.54z"/>
		</g>
		<g id="Clipping-Group_4_">
			<defs>
				<path id="Eye-Clppng_4_" d="M201.125,271c0,0,3.334-60-59.333-59.333C195.625,213.25,199.491,250,201.125,271z"/>
			</defs>
			<clipPath id="Eye-Clppng_13_">
				<use xlink:href="#Eye_x002D_Clppng_4_"  overflow="visible"/>
			</clipPath>
			
				<circle id="Pupil_4_" clip-path="url(#Eye-Clppng_13_)" fill="#8DC63F" stroke="#00A651" stroke-width="10" stroke-linecap="round" stroke-miterlimit="10" cx="165.256" cy="243.078" r="21.755"/>
		</g>
	</g>
	<g id="Whiskers-L_copy_2">
		<path id="Bottom_7_" fill="none" stroke="#603913" stroke-width="10" stroke-linecap="round" stroke-miterlimit="10" d="
			M368.696,325.969c0,0,15.734-4.52,60.055,3.656c36.249,6.687,53.917,18.522,53.917,18.522"/>
		<path id="Middle_5_" fill="none" stroke="#603913" stroke-width="10" stroke-linecap="round" stroke-miterlimit="10" d="
			M368.284,310.898c0,0,14.548-8.133,59.616-8.123c45.067,0.009,62.768,8.444,62.768,8.444"/>
		<path id="Top_7_" fill="none" stroke="#603913" stroke-width="10" stroke-linecap="round" stroke-miterlimit="10" d="M365,293
			c0,0,13.333-10,58-16s63.334,0,63.334,0"/>
	</g>
	<g id="Whiskers-R_copy_2">
		<path id="Bottom_6_" fill="none" stroke="#603913" stroke-width="10" stroke-linecap="round" stroke-miterlimit="10" d="
			M130.972,325.969c0,0-15.734-4.52-60.055,3.656C34.668,336.312,17,348.147,17,348.147"/>
		<path id="Middle_4_" fill="none" stroke="#603913" stroke-width="10" stroke-linecap="round" stroke-miterlimit="10" d="
			M131.384,310.898c0,0-14.548-8.133-59.616-8.123C26.7,302.784,9,311.22,9,311.22"/>
		<path id="Top_6_" fill="none" stroke="#603913" stroke-width="10" stroke-linecap="round" stroke-miterlimit="10" d="M134.668,293
			c0,0-13.333-10-58-16s-63.334,0-63.334,0"/>
	</g>
	<g id="Nose_2_">
		<path fill="#603913" d="M237.666,287.333c0.198,4.23,0.012,8.392-0.173,12.498c-0.183,4.081-0.501,8.186-0.319,11.839
			c0.081,1.796,0.384,3.479,0.861,4.428c0.242,0.477,0.498,0.731,0.755,0.948c0.266,0.211,0.62,0.413,1.154,0.61
			c1.057,0.397,2.701,0.714,4.453,0.831c1.763,0.151,3.669,0.201,5.603,0.182c1.958,0.011,3.826-0.026,5.603-0.189
			c1.75-0.119,3.396-0.429,4.448-0.833c0.533-0.197,0.886-0.397,1.151-0.608c0.258-0.215,0.505-0.472,0.75-0.945
			c0.478-0.946,0.775-2.627,0.86-4.423c0.181-3.651-0.137-7.755-0.317-11.836c-0.183-4.107-0.366-8.27-0.161-12.501
			c1.929,3.773,3.521,7.605,4.977,11.521c1.415,3.941,2.71,7.898,3.355,12.431c0.271,2.275,0.462,4.774-0.392,7.722
			c-0.431,1.455-1.205,3.022-2.354,4.3c-1.133,1.29-2.51,2.25-3.828,2.921c-1.324,0.684-2.626,1.088-3.854,1.4
			c-1.235,0.311-2.421,0.516-3.575,0.671c-2.296,0.271-4.526,0.346-6.662,0.366c-2.159-0.029-4.352-0.091-6.661-0.374
			c-1.154-0.155-2.34-0.36-3.574-0.67c-1.23-0.309-2.528-0.722-3.851-1.403c-1.318-0.67-2.694-1.629-3.826-2.918
			c-1.149-1.275-1.916-2.846-2.35-4.298c-0.854-2.943-0.656-5.441-0.39-7.716c0.647-4.531,1.941-8.487,3.354-12.43
			C234.155,294.94,235.744,291.108,237.666,287.333z"/>
	</g>
</g>
<g id="Mouth-Closed">
	<path id="Face-Shape_1_" fill="#C2B59B" stroke="#603913" stroke-width="10" stroke-miterlimit="10" d="M250,430.529
		c-58.345,0-100.101-13.012-129.877-32.996c-61.173-41.055-71.782-111.529-71.782-159.041c0-17.66,1.652-37.284,4.232-56.729
		c7.732-58.33,23.79-115.034,28.529-112.191c6.319,3.791,36.513,98.458,70.639,92.138c17.063-3.16,57.661-4.739,98.259-4.739
		c40.599-0.001,81.196,1.579,98.259,4.739c34.126,6.32,64.32-88.347,70.64-92.138c4.738-2.843,20.797,53.861,28.529,112.191
		c2.579,19.444,4.231,39.068,4.231,56.729c0,47.511-10.608,117.986-71.781,159.041C350.101,417.518,308.345,430.529,250,430.529z"/>
	<g id="Mouth_copy">
		<path id="Bottom_5_" fill="#F496BF" stroke="#603913" stroke-width="10" stroke-linecap="round" stroke-miterlimit="10" d="
			M250,332.334c-16.014,11.159-32.456,19.004-32.456,19.004C234.903,345.186,250,332.334,250,332.334s15.097,12.852,32.456,19.004
			C282.456,351.338,269.177,346.836,250,332.334z"/>
		<path id="Top_5_" fill="#C2B59B" stroke="#603913" stroke-width="10" stroke-linecap="round" stroke-miterlimit="10" d="
			M169.666,323.667c15.334,64,80.334,8.667,80.334,8.667s65,55.333,80.334-8.667"/>
	</g>
	<g id="Eye-L_copy">
		<g id="Eye_3_">
			<path fill="#FFFFFF" d="M294.146,276l-0.262-4.723c-0.063-1.14-1.342-28.112,16.559-47.032
				c11.038-11.667,26.762-17.583,46.734-17.583c0.361,0,0.72,0.002,1.085,0.006l3.872,0.041l0.929,3.759
				c5.96,24.108,4.899,40.237-3.337,50.757C348.158,276,325.32,276,298.876,276H294.146z"/>
			<path fill="#603913" d="M357.177,211.662c0.344,0,0.685,0.001,1.032,0.005C372.876,271,340.876,271,298.876,271
				C298.876,271,295.585,211.665,357.177,211.662 M357.187,201.662L357.187,201.662h-0.011c-21.401,0.001-38.347,6.444-50.367,19.15
				c-19.361,20.466-17.985,49.515-17.917,50.742l0.523,9.446h9.461c12.928,0,25.139,0,35.757-1.738
				c13.369-2.189,22.865-7.081,29.029-14.954c9.261-11.829,10.613-29.319,4.255-55.041l-1.858-7.517l-7.743-0.083
				C357.935,201.664,357.563,201.662,357.187,201.662L357.187,201.662z"/>
		</g>
		<g id="Clipping-Group_3_">
			<defs>
				<path id="Eye-Clppng_3_" d="M298.876,271c0,0-3.334-60,59.333-59.333C372.876,271,340.876,271,298.876,271z"/>
			</defs>
			<clipPath id="Eye-Clppng_14_">
				<use xlink:href="#Eye_x002D_Clppng_3_"  overflow="visible"/>
			</clipPath>
			
				<circle id="Pupil_3_" clip-path="url(#Eye-Clppng_14_)" fill="#8DC63F" stroke="#00A651" stroke-width="10" stroke-linecap="round" stroke-miterlimit="10" cx="334.745" cy="243.078" r="21.755"/>
		</g>
	</g>
	<g id="Eye-R_copy">
		<g id="Eye_2_">
			<path fill="#FFFFFF" d="M201.125,276c-26.444,0-49.282,0-60.849-14.775c-8.237-10.52-9.297-26.649-3.338-50.757l0.929-3.759
				l3.872-0.041c0.366-0.004,0.724-0.006,1.085-0.006c19.972,0,35.696,5.916,46.734,17.583c17.9,18.92,16.622,45.893,16.559,47.032
				L205.855,276H201.125z"/>
			<path fill="#603913" d="M142.824,211.662c61.592,0,58.301,59.338,58.301,59.338c-42,0-74,0-59.333-59.333
				C142.14,211.663,142.48,211.662,142.824,211.662 M142.824,201.662c-0.379,0-0.755,0.002-1.139,0.006l-7.743,0.083l-1.858,7.517
				c-6.358,25.722-5.006,43.211,4.255,55.041c6.165,7.873,15.66,12.765,29.029,14.954C175.986,281,188.197,281,201.125,281h9.461
				l0.524-9.446c0.068-1.227,1.443-30.278-17.919-50.745C181.17,208.104,164.225,201.662,142.824,201.662L142.824,201.662z"/>
		</g>
		<g id="Clipping-Group_2_">
			<defs>
				<path id="Eye-Clppng_2_" d="M201.125,271c0,0,3.334-60-59.333-59.333C127.125,271,159.125,271,201.125,271z"/>
			</defs>
			<clipPath id="Eye-Clppng_15_">
				<use xlink:href="#Eye_x002D_Clppng_2_"  overflow="visible"/>
			</clipPath>
			
				<circle id="Pupil_2_" clip-path="url(#Eye-Clppng_15_)" fill="#8DC63F" stroke="#00A651" stroke-width="10" stroke-linecap="round" stroke-miterlimit="10" cx="165.256" cy="243.078" r="21.755"/>
		</g>
	</g>
	<g id="Whiskers-L_copy">
		<path id="Bottom_4_" fill="none" stroke="#603913" stroke-width="10" stroke-linecap="round" stroke-miterlimit="10" d="
			M368.696,325.969c0,0,15.734-4.52,60.055,3.656c36.249,6.687,53.917,18.522,53.917,18.522"/>
		<path id="Middle_3_" fill="none" stroke="#603913" stroke-width="10" stroke-linecap="round" stroke-miterlimit="10" d="
			M368.284,310.898c0,0,14.548-8.133,59.616-8.123c45.067,0.009,62.768,8.444,62.768,8.444"/>
		<path id="Top_4_" fill="none" stroke="#603913" stroke-width="10" stroke-linecap="round" stroke-miterlimit="10" d="M365,293
			c0,0,13.333-10,58-16s63.334,0,63.334,0"/>
	</g>
	<g id="Whiskers-R_copy">
		<path id="Bottom_3_" fill="none" stroke="#603913" stroke-width="10" stroke-linecap="round" stroke-miterlimit="10" d="
			M130.972,325.969c0,0-15.734-4.52-60.055,3.656C34.668,336.312,17,348.147,17,348.147"/>
		<path id="Middle_2_" fill="none" stroke="#603913" stroke-width="10" stroke-linecap="round" stroke-miterlimit="10" d="
			M131.384,310.898c0,0-14.548-8.133-59.616-8.123C26.7,302.784,9,311.22,9,311.22"/>
		<path id="Top_3_" fill="none" stroke="#603913" stroke-width="10" stroke-linecap="round" stroke-miterlimit="10" d="M134.668,293
			c0,0-13.333-10-58-16s-63.334,0-63.334,0"/>
	</g>
	<g id="Nose_1_">
		<path fill="#603913" d="M237.666,287.333c0.198,4.23,0.012,8.392-0.173,12.498c-0.183,4.081-0.501,8.186-0.319,11.839
			c0.081,1.796,0.384,3.479,0.861,4.428c0.242,0.477,0.498,0.731,0.755,0.948c0.266,0.211,0.62,0.413,1.154,0.61
			c1.057,0.397,2.701,0.714,4.453,0.831c1.763,0.151,3.669,0.201,5.603,0.182c1.958,0.011,3.826-0.026,5.603-0.189
			c1.75-0.119,3.396-0.429,4.448-0.833c0.533-0.197,0.886-0.397,1.151-0.608c0.258-0.215,0.505-0.472,0.75-0.945
			c0.478-0.946,0.775-2.627,0.86-4.423c0.181-3.651-0.137-7.755-0.317-11.836c-0.183-4.107-0.366-8.27-0.161-12.501
			c1.929,3.773,3.521,7.605,4.977,11.521c1.415,3.941,2.71,7.898,3.355,12.431c0.271,2.275,0.462,4.774-0.392,7.722
			c-0.431,1.455-1.205,3.022-2.354,4.3c-1.133,1.29-2.51,2.25-3.828,2.921c-1.324,0.684-2.626,1.088-3.854,1.4
			c-1.235,0.311-2.421,0.516-3.575,0.671c-2.296,0.271-4.526,0.346-6.662,0.366c-2.159-0.029-4.352-0.091-6.661-0.374
			c-1.154-0.155-2.34-0.36-3.574-0.67c-1.23-0.309-2.528-0.722-3.851-1.403c-1.318-0.67-2.694-1.629-3.826-2.918
			c-1.149-1.275-1.916-2.846-2.35-4.298c-0.854-2.943-0.656-5.441-0.39-7.716c0.647-4.531,1.941-8.487,3.354-12.43
			C234.155,294.94,235.744,291.108,237.666,287.333z"/>
	</g>
</g>
</svg>
